<?xml version="1.0" standalone="no"?>
<!DOCTYPE svg PUBLIC "-//W3C//DTD SVG 20010904//EN"
 "http://www.w3.org/TR/2001/REC-SVG-20010904/DTD/svg10.dtd">
<svg version="1.0" xmlns="http://www.w3.org/2000/svg"
 width="495.000000pt" height="423.000000pt" viewBox="0 0 495.000000 423.000000"
 preserveAspectRatio="xMidYMid meet">

<g transform="translate(0.000000,423.000000) scale(0.100000,-0.100000)"
fill="#000000" stroke="none">
<path d="M4 4045 c0 -88 2 -123 3 -77 2 46 2 118 0 160 -1 42 -3 5 -3 -83z"/>
<path d="M2347 3796 c-99 -41 -140 -80 -167 -158 -12 -32 -11 -40 4 -63 28
-43 109 -75 191 -75 283 0 473 188 293 290 -37 21 -58 25 -153 28 -98 2 -116
0 -168 -22z m218 -100 c18 -13 17 -14 -6 -29 -55 -36 -239 -57 -239 -27 0 12
34 38 70 54 44 19 150 21 175 2z"/>
<path d="M1845 3635 c-75 -34 -149 -106 -184 -178 -57 -119 -49 -202 24 -233
82 -34 166 -1 267 104 102 105 140 203 107 275 -27 59 -124 74 -214 32z m78
-132 c-20 -57 -121 -153 -160 -153 -44 0 18 97 97 152 34 23 71 24 63 1z"/>
<path d="M2855 3641 c-11 -5 -31 -20 -44 -35 -21 -22 -23 -32 -18 -78 10 -79
61 -173 132 -244 76 -75 133 -104 204 -104 45 0 57 4 82 29 26 26 29 37 29 89
0 113 -101 262 -220 322 -47 24 -134 35 -165 21z m114 -135 c51 -27 155 -165
137 -183 -24 -24 -155 106 -170 170 -7 31 -5 32 33 13z"/>
<path d="M2574 3396 c-67 -29 -133 -150 -154 -281 -23 -146 34 -245 142 -245
25 0 56 8 75 19 54 34 128 159 159 270 31 110 -10 214 -94 239 -50 15 -89 15
-128 -2z m96 -131 c18 -22 5 -93 -31 -163 -70 -140 -126 -111 -85 43 29 112
80 164 116 120z"/>
<path d="M1430 3381 c-129 -40 -271 -196 -300 -330 -12 -60 -14 -61 -54 -72
-209 -57 -385 -139 -462 -216 -83 -82 -97 -118 -102 -248 -4 -112 14 -288 44
-435 42 -203 166 -502 280 -677 148 -227 361 -440 570 -568 44 -27 81 -50 83
-52 2 -1 4 -40 5 -86 2 -68 7 -94 29 -139 89 -182 366 -289 787 -305 458 -16
832 109 926 311 19 41 24 68 24 137 l0 87 68 40 c220 132 458 368 600 598 115
186 191 369 246 591 44 181 60 299 60 463 1 128 0 138 -27 192 -61 125 -222
218 -537 310 -30 9 -49 21 -57 38 -7 14 -24 50 -38 80 -70 146 -145 197 -224
153 -50 -29 -67 -102 -51 -216 14 -96 57 -182 124 -245 49 -47 59 -52 99 -52
29 0 53 7 69 19 24 19 48 78 48 120 0 11 4 21 9 21 16 0 128 -89 145 -115 9
-14 35 -34 59 -46 96 -49 169 -117 182 -172 15 -59 -135 -163 -325 -227 -85
-29 -244 -70 -249 -65 -2 3 2 11 9 20 35 42 -36 142 -117 164 -56 16 -173 13
-226 -5 -51 -17 -97 -63 -97 -97 0 -59 82 -127 151 -127 55 0 28 -8 -83 -24
-91 -14 -504 -47 -563 -45 -11 0 8 9 42 20 78 25 107 57 100 113 -11 83 -122
146 -272 154 -76 3 -99 1 -148 -18 -73 -27 -127 -79 -127 -121 0 -67 40 -107
131 -133 53 -16 52 -16 -91 -10 -272 9 -542 35 -563 54 -4 4 13 8 38 8 178 7
232 174 82 255 -36 19 -58 22 -147 22 -86 0 -116 -4 -168 -24 -118 -45 -157
-130 -89 -193 24 -23 27 -29 12 -25 -11 3 -57 15 -103 27 -183 46 -344 109
-454 180 -65 41 -79 64 -68 119 8 43 27 66 195 232 35 35 124 90 170 106 41
14 49 13 85 -1 56 -22 106 -20 165 8 145 68 268 210 282 325 5 41 2 51 -22 79
-36 43 -98 60 -155 43z m33 -149 c-23 -62 -121 -158 -180 -176 -30 -10 -29 1
5 55 37 58 98 117 136 133 36 15 48 12 39 -12z m2022 -220 c14 -34 25 -77 25
-95 l-1 -32 -20 25 c-37 44 -70 120 -75 173 l-5 52 25 -30 c14 -16 37 -58 51
-93z m-1846 -639 c22 -6 22 -6 -9 -19 -35 -15 -79 -18 -131 -7 l-34 7 30 12
c32 14 105 18 144 7z m1637 -24 c67 -17 55 -33 -18 -25 -73 9 -92 17 -58 27
14 4 26 7 28 8 2 1 23 -4 48 -10z m-2502 -68 c274 -150 741 -251 1291 -281
805 -43 1547 69 1928 292 26 15 50 28 52 28 22 0 -20 -229 -75 -405 -177 -566
-625 -996 -1200 -1149 -221 -59 -530 -61 -753 -6 -586 147 -1042 573 -1236
1155 -47 142 -102 405 -85 405 4 0 39 -17 78 -39z m1681 29 c14 -6 16 -9 5
-10 -8 -1 -4 -6 10 -10 18 -6 5 -8 -46 -9 -49 -1 -81 4 -100 15 -27 15 -27 15
-4 10 63 -16 81 -18 97 -12 15 6 15 8 3 16 -13 9 -13 10 0 9 8 0 24 -4 35 -9z
m-444 -1722 c93 -20 131 -22 359 -22 288 0 358 10 579 84 64 21 119 36 123 34
30 -19 -19 -94 -90 -139 -114 -71 -308 -115 -544 -122 -257 -8 -472 29 -629
108 -63 31 -129 101 -129 135 0 22 1 22 114 -16 62 -22 160 -49 217 -62z"/>
<path d="M1540 2360 c-31 -7 -28 -7 18 -7 30 1 56 5 58 9 6 9 -27 8 -76 -2z"/>
<path d="M2463 1820 c-28 -11 -39 -33 -68 -128 -12 -43 -62 -205 -109 -362
-48 -157 -87 -301 -88 -320 0 -61 66 -89 110 -46 8 7 24 49 37 92 12 44 64
218 114 387 50 170 91 317 91 327 0 10 -12 28 -26 39 -30 23 -30 23 -61 11z"/>
<path d="M1937 1658 c-25 -18 -107 -80 -182 -137 -181 -139 -184 -153 -49
-256 43 -33 121 -93 173 -133 105 -82 137 -90 174 -40 34 46 19 68 -123 178
-72 56 -130 105 -130 109 0 4 55 50 123 101 67 52 127 101 134 110 30 37 1
100 -46 100 -16 0 -49 -14 -74 -32z"/>
<path d="M2708 1673 c-9 -10 -19 -28 -23 -41 -8 -29 34 -73 173 -176 50 -38
92 -74 92 -80 0 -7 -35 -38 -78 -69 -137 -100 -185 -148 -185 -185 0 -55 54
-79 103 -45 51 35 286 218 318 247 31 29 41 66 24 92 -4 7 -83 71 -177 143
-179 138 -213 153 -247 114z"/>
<path d="M2113 3320 c-117 -67 -198 -181 -198 -278 0 -48 4 -57 33 -83 64 -58
179 -26 281 79 104 107 141 229 85 286 -23 22 -35 26 -88 26 -49 0 -71 -6
-113 -30z m77 -116 c0 -23 -123 -144 -135 -132 -2 2 4 19 12 37 21 42 123 121
123 95z"/>
<path d="M2860 3062 c-74 -74 -37 -218 86 -337 116 -112 264 -143 325 -67 18
23 20 36 16 87 -13 169 -189 345 -345 345 -46 0 -58 -4 -82 -28z m192 -146
c44 -36 108 -125 108 -150 0 -12 -46 -5 -70 10 -72 48 -130 121 -130 164 0 33
33 24 92 -24z"/>
<path d="M1651 3017 c-78 -38 -188 -143 -219 -208 -13 -27 -22 -64 -22 -92 0
-39 5 -53 33 -83 83 -91 237 -52 367 94 96 107 118 199 66 267 -51 66 -124 73
-225 22z m107 -128 c6 -33 -105 -143 -166 -164 -32 -12 -37 -11 -41 3 -2 8 4
21 13 27 9 7 13 15 9 18 -3 4 1 7 10 7 11 0 17 8 18 23 0 22 0 21 10 -3 8 -20
6 -27 -13 -41 -27 -21 -22 -30 10 -18 13 5 26 18 29 30 3 11 9 16 12 10 4 -6
18 5 34 24 15 19 23 35 17 35 -5 0 -10 -4 -10 -10 0 -5 -4 -10 -10 -10 -17 0
1 30 19 30 21 1 51 24 51 41 0 10 -3 10 -12 1 -7 -7 -19 -12 -27 -12 -13 1
-12 4 4 15 22 17 39 15 43 -6z m-118 -65 c0 -8 -4 -12 -10 -9 -5 3 -10 10 -10
16 0 5 5 9 10 9 6 0 10 -7 10 -16z"/>
<path d="M2180 2848 c-157 -23 -320 -170 -320 -288 0 -56 14 -78 63 -101 76
-34 173 -17 291 51 59 33 151 125 166 165 23 60 4 131 -41 156 -34 18 -103 25
-159 17z m-12 -152 c-7 -7 -19 -13 -27 -12 -8 1 -15 -10 -18 -26 -3 -23 -1
-26 19 -21 20 4 19 2 -6 -15 -47 -33 -116 -56 -128 -44 -18 18 35 77 94 106
59 29 87 35 66 12z m62 7 c0 -11 -32 -43 -43 -43 -6 0 0 8 11 19 12 10 19 21
15 25 -3 3 -1 6 5 6 7 0 12 -3 12 -7z"/>
<path d="M2030 2600 c-24 -15 -7 -19 20 -5 15 8 19 14 10 14 -8 1 -22 -3 -30
-9z"/>
<path d="M1083 2790 c-94 -19 -191 -77 -219 -132 -44 -84 51 -178 180 -178 65
0 174 27 220 54 43 25 86 88 86 126 0 36 -39 89 -80 110 -44 23 -128 32 -187
20z m97 -141 c0 -17 -66 -39 -117 -39 -50 0 -50 7 2 34 34 18 115 22 115 5z"/>
<path d="M2552 2761 c-39 -25 -52 -55 -52 -121 0 -68 45 -131 129 -182 72 -42
111 -56 188 -65 66 -7 99 1 129 34 50 54 20 147 -75 235 -110 102 -246 144
-319 99z m147 -131 c21 -10 58 -37 82 -60 40 -38 42 -40 18 -40 -31 0 -100 37
-139 74 -51 48 -31 62 39 26z"/>
<path d="M3531 2657 c-61 -23 -80 -81 -42 -129 45 -56 204 -109 283 -94 46 8
88 50 88 87 0 42 -51 94 -117 119 -71 26 -167 34 -212 17z m164 -119 c7 -7 -2
-8 -25 -3 -19 4 -39 12 -45 17 -7 7 2 8 25 3 19 -4 40 -12 45 -17z"/>
<path d="M3 100 c0 -47 2 -66 4 -42 2 23 2 61 0 85 -2 23 -4 4 -4 -43z"/>
</g>
</svg>
