<?xml version="1.0" standalone="no"?>
<!DOCTYPE svg PUBLIC "-//W3C//DTD SVG 20010904//EN"
 "http://www.w3.org/TR/2001/REC-SVG-20010904/DTD/svg10.dtd">
<svg version="1.0" xmlns="http://www.w3.org/2000/svg"
 width="1024.000000pt" height="1024.000000pt" viewBox="0 0 1024.000000 1024.000000"
 preserveAspectRatio="xMidYMid meet">

<g transform="translate(0.000000,1024.000000) scale(0.100000,-0.100000)"
fill="#000000" stroke="none">
<path d="M5230 8005 c-19 -8 -50 -14 -68 -14 -18 -1 -40 -5 -50 -10 -9 -5 -33
-16 -53 -24 -69 -30 -139 -108 -139 -156 0 -30 32 -63 84 -87 163 -76 486 36
486 168 0 51 -96 129 -138 113 -8 -3 -20 -1 -26 3 -21 17 -61 20 -96 7z m85
-119 c18 -13 17 -14 -6 -29 -55 -36 -239 -57 -239 -27 0 12 34 38 70 54 44 19
150 21 175 2z"/>
<path d="M4650 7830 c-52 -11 -89 -28 -124 -56 -43 -36 -126 -136 -120 -146 3
-4 -4 -29 -15 -54 -25 -56 -26 -75 -5 -115 17 -34 66 -59 117 -59 53 0 129 45
199 118 115 118 148 225 92 291 -22 26 -32 31 -67 30 -23 -1 -58 -5 -77 -9z
m23 -137 c-20 -57 -121 -153 -160 -153 -44 0 18 97 97 152 34 23 71 24 63 1z"/>
<path d="M5579 7800 c-40 -38 -42 -41 -35 -87 10 -76 62 -171 131 -239 76 -75
133 -104 204 -104 45 0 57 4 82 29 88 89 -23 324 -194 409 -92 45 -134 44
-188 -8z m140 -104 c51 -27 155 -165 137 -183 -24 -24 -155 106 -170 170 -7
31 -5 32 33 13z"/>
<path d="M5324 7586 c-67 -29 -133 -150 -154 -281 -23 -146 34 -245 142 -245
25 0 56 8 75 19 54 34 128 159 159 270 31 110 -10 214 -94 239 -50 15 -89 15
-128 -2z m96 -131 c18 -22 5 -93 -31 -163 -70 -140 -126 -111 -85 43 29 112
80 164 116 120z"/>
<path d="M4145 7545 c-57 -20 -80 -34 -121 -78 -54 -58 -124 -165 -124 -190 0
-9 -4 -19 -10 -22 -5 -3 -10 -15 -10 -26 0 -26 -47 -69 -76 -69 -12 0 -26 -4
-29 -10 -3 -5 -17 -10 -31 -10 -13 0 -24 -4 -24 -10 0 -5 -13 -10 -30 -10 -16
0 -30 -4 -30 -10 0 -5 -11 -10 -24 -10 -13 0 -41 -8 -63 -19 -21 -10 -59 -29
-85 -41 -27 -13 -48 -27 -48 -32 0 -4 -6 -8 -13 -8 -37 0 -140 -132 -152 -195
-14 -77 -4 -379 15 -420 5 -11 11 -40 14 -65 5 -48 18 -113 35 -170 5 -19 13
-46 16 -60 4 -14 10 -34 15 -45 4 -11 25 -63 45 -115 37 -95 115 -250 158
-314 123 -185 234 -315 355 -419 103 -88 200 -159 270 -197 l42 -24 0 -65 c0
-225 157 -361 498 -432 445 -93 978 -12 1176 177 71 69 96 129 96 236 l0 87
56 32 c219 125 482 388 623 623 160 266 248 534 286 866 33 281 6 387 -120
482 -64 49 -212 122 -300 148 -22 7 -50 16 -63 21 -13 5 -31 9 -41 9 -47 0
-80 31 -120 113 -45 93 -89 150 -133 173 -28 15 -33 14 -77 -8 -58 -29 -67
-41 -74 -99 -15 -127 36 -271 127 -357 49 -47 59 -52 99 -52 29 0 53 7 69 19
24 19 48 78 48 120 0 11 4 21 9 21 16 0 128 -89 145 -115 9 -14 35 -34 59 -46
96 -49 169 -117 182 -172 15 -59 -135 -163 -325 -227 -85 -29 -244 -70 -249
-65 -2 3 2 11 9 20 35 42 -36 142 -117 164 -56 16 -173 13 -226 -5 -51 -17
-97 -63 -97 -97 0 -59 82 -127 151 -127 55 0 28 -8 -83 -24 -91 -14 -504 -47
-563 -45 -11 0 8 9 42 20 78 25 107 57 100 113 -11 83 -122 146 -272 154 -76
3 -99 1 -148 -18 -73 -27 -127 -79 -127 -121 0 -67 40 -107 131 -133 53 -16
52 -16 -91 -10 -272 9 -542 35 -563 54 -4 4 13 8 38 8 178 7 232 174 82 255
-36 19 -58 22 -147 22 -86 0 -116 -4 -168 -24 -118 -45 -157 -130 -89 -193 24
-23 27 -29 12 -25 -11 3 -57 15 -103 27 -183 46 -344 109 -454 180 -65 41 -79
64 -68 119 8 43 27 66 195 232 35 35 124 90 170 106 41 14 49 13 85 -1 56 -22
106 -20 165 8 144 68 268 210 282 324 6 58 -19 96 -75 112 -49 13 -56 13 -137
-15z m68 -123 c-23 -62 -121 -158 -180 -176 -30 -10 -29 1 5 55 37 58 98 117
136 133 36 15 48 12 39 -12z m2022 -220 c14 -34 25 -77 25 -95 l-1 -32 -20 25
c-37 44 -70 120 -75 173 l-5 52 25 -30 c14 -16 37 -58 51 -93z m-1846 -639
c22 -6 22 -6 -9 -19 -35 -15 -79 -18 -131 -7 l-34 7 30 12 c32 14 105 18 144
7z m1637 -24 c67 -17 55 -33 -18 -25 -73 9 -92 17 -58 27 14 4 26 7 28 8 2 1
23 -4 48 -10z m-2478 -78 c273 -137 601 -214 1117 -262 170 -16 781 -16 950
-1 515 49 884 142 1128 284 26 15 50 28 54 28 8 0 -4 -125 -17 -185 -6 -27
-14 -68 -17 -90 -3 -22 -9 -44 -14 -49 -5 -6 -9 -23 -9 -38 0 -15 -4 -28 -10
-28 -5 0 -10 -13 -10 -30 0 -16 -4 -30 -10 -30 -5 0 -10 -13 -10 -30 0 -16 -4
-30 -10 -30 -5 0 -10 -6 -10 -14 0 -12 -45 -111 -76 -166 -8 -14 -22 -42 -32
-62 -9 -21 -20 -38 -24 -38 -5 0 -8 -6 -8 -12 0 -7 -14 -29 -30 -48 -16 -19
-30 -41 -30 -47 0 -7 -4 -13 -8 -13 -4 0 -16 -15 -27 -32 -22 -39 -254 -273
-305 -308 -19 -13 -37 -27 -40 -30 -22 -24 -131 -96 -162 -106 -10 -4 -18 -10
-18 -15 0 -5 -9 -9 -19 -9 -11 0 -21 -3 -23 -7 -4 -11 -87 -53 -104 -53 -8 0
-14 -4 -14 -10 0 -5 -10 -10 -23 -10 -13 0 -27 -4 -33 -8 -5 -5 -29 -14 -54
-21 -25 -7 -53 -17 -62 -22 -10 -5 -27 -9 -37 -9 -11 0 -23 -4 -26 -10 -3 -5
-28 -10 -54 -10 -26 0 -51 -4 -57 -9 -7 -8 -169 -19 -329 -23 -81 -2 -260 23
-360 52 -22 6 -53 15 -70 19 -32 9 -168 62 -225 89 -67 31 -235 134 -305 187
-73 56 -232 214 -302 300 -110 136 -230 358 -292 541 -42 126 -102 414 -86
414 3 0 49 -22 103 -49z m1657 39 c14 -6 16 -9 5 -10 -8 -1 -4 -6 10 -10 18
-6 5 -8 -46 -9 -49 -1 -81 4 -100 15 -27 15 -27 15 -4 10 63 -16 81 -18 97
-12 15 6 15 8 3 16 -13 9 -13 10 0 9 8 0 24 -4 35 -9z m-525 -1700 c139 -37
253 -50 442 -50 242 0 384 24 606 101 47 16 87 29 89 29 9 0 1 -61 -10 -83
-17 -32 -70 -77 -91 -77 -9 0 -16 -4 -16 -10 0 -5 -9 -10 -20 -10 -11 0 -20
-4 -20 -10 0 -5 -11 -10 -24 -10 -14 0 -28 -4 -31 -10 -3 -5 -26 -10 -50 -10
-24 0 -47 -4 -50 -10 -3 -5 -21 -10 -40 -10 -19 0 -36 -4 -39 -9 -7 -10 -169
-24 -301 -24 -104 -1 -248 14 -325 32 -25 6 -61 14 -80 17 -19 3 -51 13 -70
21 -61 27 -134 63 -151 76 -25 19 -69 88 -69 108 0 16 8 15 88 -12 48 -16 121
-39 162 -49z"/>
<path d="M4290 6550 c-31 -7 -28 -7 18 -7 30 1 56 5 58 9 6 9 -27 8 -76 -2z"/>
<path d="M5220 6010 c0 -5 -6 -10 -14 -10 -19 0 -46 -44 -46 -74 0 -14 -4 -28
-10 -31 -5 -3 -10 -19 -10 -35 0 -16 -4 -32 -10 -35 -5 -3 -10 -19 -10 -35 0
-16 -4 -32 -10 -35 -5 -3 -10 -17 -10 -30 0 -13 -4 -27 -10 -30 -5 -3 -10 -19
-10 -35 0 -16 -4 -31 -9 -34 -5 -3 -12 -22 -15 -41 -3 -19 -9 -51 -12 -70 -3
-19 -10 -35 -15 -35 -5 0 -9 -13 -9 -29 0 -17 -4 -33 -10 -36 -5 -3 -10 -17
-10 -30 0 -13 -4 -27 -10 -30 -5 -3 -10 -21 -10 -39 0 -17 -4 -36 -9 -42 -5
-5 -12 -30 -15 -56 -6 -40 -4 -50 14 -68 16 -16 29 -20 48 -15 51 12 38 -21
216 584 36 123 66 229 66 236 0 21 -41 65 -61 65 -10 0 -19 -4 -19 -10z"/>
<path d="M4710 5860 c-14 -11 -30 -20 -35 -20 -6 0 -17 -9 -25 -20 -8 -11 -19
-20 -25 -20 -6 0 -26 -16 -45 -35 -19 -20 -52 -47 -73 -61 -86 -57 -147 -117
-147 -146 0 -26 25 -48 214 -194 165 -127 189 -136 229 -82 32 43 15 71 -83
145 -119 89 -171 134 -168 144 2 5 57 51 123 101 65 51 126 105 135 121 34 61
-42 113 -100 67z"/>
<path d="M5463 5863 c-16 -11 -23 -26 -23 -48 0 -29 9 -41 68 -90 37 -31 90
-71 118 -90 72 -48 79 -58 60 -88 -9 -13 -27 -30 -41 -37 -14 -7 -25 -17 -25
-22 0 -4 -6 -8 -14 -8 -7 0 -26 -12 -42 -28 -16 -15 -45 -38 -64 -52 -48 -33
-59 -50 -60 -86 0 -35 26 -64 58 -64 11 0 49 22 84 48 297 226 308 236 308
272 0 29 -30 60 -125 131 -33 24 -91 69 -130 99 -110 86 -129 93 -172 63z"/>
<path d="M4863 7510 c-117 -67 -198 -181 -198 -278 0 -48 4 -57 33 -83 64 -58
179 -26 281 79 104 107 141 229 85 286 -23 22 -35 26 -88 26 -49 0 -71 -6
-113 -30z m77 -116 c0 -23 -123 -144 -135 -132 -2 2 4 19 12 37 21 42 123 121
123 95z"/>
<path d="M5610 7252 c-74 -74 -37 -218 86 -337 116 -112 264 -143 325 -67 18
23 20 36 16 87 -13 169 -189 345 -345 345 -46 0 -58 -4 -82 -28z m192 -146
c44 -36 108 -125 108 -150 0 -12 -46 -5 -70 10 -72 48 -130 121 -130 164 0 33
33 24 92 -24z"/>
<path d="M4401 7207 c-78 -38 -188 -143 -219 -208 -13 -27 -22 -64 -22 -92 0
-39 5 -53 33 -83 83 -91 237 -52 367 94 96 107 118 199 66 267 -51 66 -124 73
-225 22z m107 -128 c6 -33 -105 -143 -166 -164 -32 -12 -37 -11 -41 3 -2 8 4
21 13 27 9 7 13 15 9 18 -3 4 1 7 10 7 11 0 17 8 18 23 0 22 0 21 10 -3 8 -20
6 -27 -13 -41 -27 -21 -22 -30 10 -18 13 5 26 18 29 30 3 11 9 16 12 10 4 -6
18 5 34 24 15 19 23 35 17 35 -5 0 -10 -4 -10 -10 0 -5 -4 -10 -10 -10 -17 0
1 30 19 30 21 1 51 24 51 41 0 10 -3 10 -12 1 -7 -7 -19 -12 -27 -12 -13 1
-12 4 4 15 22 17 39 15 43 -6z m-118 -65 c0 -8 -4 -12 -10 -9 -5 3 -10 10 -10
16 0 5 5 9 10 9 6 0 10 -7 10 -16z"/>
<path d="M4930 7038 c-157 -23 -320 -170 -320 -288 0 -56 14 -78 63 -101 76
-34 173 -17 291 51 59 33 151 125 166 165 23 60 4 131 -41 156 -34 18 -103 25
-159 17z m-12 -152 c-7 -7 -19 -13 -27 -12 -8 1 -15 -10 -18 -26 -3 -23 -1
-26 19 -21 20 4 19 2 -6 -15 -47 -33 -116 -56 -128 -44 -18 18 35 77 94 106
59 29 87 35 66 12z m62 7 c0 -11 -32 -43 -43 -43 -6 0 0 8 11 19 12 10 19 21
15 25 -3 3 -1 6 5 6 7 0 12 -3 12 -7z"/>
<path d="M4780 6790 c-24 -15 -7 -19 20 -5 15 8 19 14 10 14 -8 1 -22 -3 -30
-9z"/>
<path d="M3833 6980 c-94 -19 -191 -77 -219 -132 -44 -84 51 -178 180 -178 65
0 174 27 220 54 43 25 86 88 86 126 0 36 -39 89 -80 110 -44 23 -128 32 -187
20z m97 -141 c0 -17 -66 -39 -117 -39 -50 0 -50 7 2 34 34 18 115 22 115 5z"/>
<path d="M5302 6951 c-39 -25 -52 -55 -52 -121 0 -68 45 -131 129 -182 72 -42
111 -56 188 -65 66 -7 99 1 129 34 50 54 20 147 -75 235 -110 102 -246 144
-319 99z m147 -131 c21 -10 58 -37 82 -60 40 -38 42 -40 18 -40 -31 0 -100 37
-139 74 -51 48 -31 62 39 26z"/>
<path d="M6281 6847 c-61 -23 -80 -81 -42 -129 45 -56 204 -109 283 -94 46 8
88 50 88 87 0 42 -51 94 -117 119 -71 26 -167 34 -212 17z m164 -119 c7 -7 -2
-8 -25 -3 -19 4 -39 12 -45 17 -7 7 2 8 25 3 19 -4 40 -12 45 -17z"/>
<path d="M2305 3943 c-60 -15 -113 -89 -101 -140 4 -14 22 -41 41 -60 30 -30
38 -33 95 -33 57 0 65 3 96 34 30 30 34 40 34 86 0 45 -4 56 -30 80 -37 34
-83 46 -135 33z"/>
<path d="M4995 3931 c-3 -6 -26 -11 -50 -11 -24 0 -47 -4 -50 -10 -3 -5 -17
-10 -31 -10 -13 0 -24 -4 -24 -10 0 -5 -7 -10 -15 -10 -14 0 -53 -18 -65 -30
-3 -3 -14 -11 -25 -18 -11 -7 -34 -22 -52 -33 -17 -11 -49 -41 -70 -67 -21
-26 -41 -48 -45 -50 -5 -2 -8 -12 -8 -23 0 -10 -4 -19 -10 -19 -5 0 -10 -9
-10 -20 0 -11 -4 -20 -10 -20 -5 0 -10 -9 -10 -20 0 -11 -4 -20 -10 -20 -5 0
-10 -13 -10 -29 0 -17 -4 -32 -9 -35 -5 -3 -12 -52 -15 -108 -9 -143 8 -239
63 -351 58 -120 162 -211 299 -264 81 -31 254 -43 355 -24 123 24 327 149 327
201 0 24 -119 130 -145 130 -11 0 -38 -17 -60 -38 -44 -41 -117 -82 -145 -82
-11 0 -22 -4 -25 -10 -8 -13 -110 -13 -154 1 -114 36 -175 78 -231 162 -55 81
-78 186 -61 281 30 177 131 288 292 322 127 26 235 -4 329 -92 26 -24 53 -44
61 -44 17 0 149 130 149 146 0 34 -125 130 -220 169 -83 34 -300 59 -315 36z"/>
<path d="M1200 3916 c-20 -9 -20 -17 -20 -583 l0 -573 110 0 110 0 2 198 3
197 72 3 c67 3 73 1 97 -25 14 -15 26 -33 26 -40 0 -7 5 -13 10 -13 6 0 10 -5
10 -10 0 -6 19 -41 42 -78 22 -37 64 -104 92 -149 l51 -83 128 0 128 0 -12 23
c-7 12 -20 33 -29 47 -43 63 -208 317 -219 338 -7 13 -11 25 -9 26 2 2 29 16
62 32 145 72 216 241 172 412 -25 99 -101 190 -191 231 -16 7 -38 17 -47 22
-10 5 -29 9 -44 9 -14 0 -33 4 -43 9 -23 13 -475 19 -501 7z m445 -201 c113
-30 155 -83 155 -198 0 -65 -2 -71 -34 -103 -20 -20 -44 -34 -58 -34 -13 0
-28 -4 -33 -9 -12 -12 -246 -18 -263 -7 -9 5 -12 55 -12 180 0 95 3 176 7 179
12 13 179 7 238 -8z"/>
<path d="M7232 3918 c-15 -15 -17 -279 -3 -293 6 -6 4 -28 -6 -58 l-16 -48
-26 24 c-38 34 -70 52 -122 66 -64 18 -239 3 -239 -20 0 -5 -9 -9 -20 -9 -11
0 -20 -4 -20 -10 0 -5 -7 -10 -16 -10 -21 0 -124 -103 -124 -123 0 -10 -4 -17
-9 -17 -5 0 -11 -8 -14 -17 -4 -10 -13 -36 -21 -58 -11 -28 -16 -78 -16 -164
0 -144 20 -219 79 -298 81 -106 176 -149 315 -141 88 5 139 25 200 78 18 17
35 30 38 30 2 0 5 -14 6 -31 4 -51 20 -59 121 -59 l91 0 -2 583 -3 582 -90 3
c-62 2 -94 -1 -103 -10z m-144 -504 c43 -17 88 -57 108 -95 39 -75 57 -180 34
-194 -5 -3 -10 -21 -11 -38 -2 -68 -68 -144 -126 -146 -12 -1 -25 -5 -28 -11
-11 -18 -83 -11 -137 14 -98 44 -142 115 -141 231 0 111 46 197 128 239 39 20
125 20 173 0z"/>
<path d="M2975 3610 c-3 -5 -24 -10 -45 -10 -21 0 -42 -4 -45 -10 -3 -5 -16
-10 -29 -10 -13 0 -31 -9 -41 -20 -10 -11 -23 -20 -29 -20 -16 0 -126 -112
-126 -128 0 -7 -4 -12 -10 -12 -5 0 -10 -9 -10 -20 0 -11 -4 -20 -10 -20 -5 0
-10 -10 -10 -23 0 -13 -6 -29 -12 -35 -9 -9 -13 -51 -13 -135 1 -115 2 -126
32 -188 78 -167 216 -246 418 -237 76 3 101 9 160 36 71 34 155 105 181 154 8
15 14 29 14 32 0 3 -27 21 -61 41 -78 46 -108 46 -145 -1 -40 -49 -80 -66
-163 -66 -106 -1 -166 37 -208 131 -25 55 -22 176 4 226 76 145 232 167 350
50 l53 -54 85 41 c47 22 85 46 85 52 0 46 -122 168 -197 197 -90 35 -215 51
-228 29z"/>
<path d="M3865 3610 c-3 -5 -21 -10 -40 -10 -19 0 -37 -4 -40 -10 -3 -5 -15
-10 -26 -10 -10 0 -19 -3 -19 -8 0 -4 -14 -13 -31 -21 -50 -22 -149 -126 -149
-156 0 -8 -4 -15 -10 -15 -5 0 -10 -9 -10 -19 0 -11 -4 -22 -9 -25 -20 -13
-32 -201 -16 -276 20 -98 102 -213 190 -265 124 -72 320 -73 459 -3 39 20 136
104 136 118 0 9 -115 90 -128 90 -15 0 -69 -29 -82 -45 -7 -8 -23 -15 -36 -15
-12 0 -26 -4 -29 -10 -3 -5 -36 -10 -73 -10 -54 0 -77 6 -117 28 -56 30 -105
93 -108 137 l-2 30 289 2 c200 2 292 6 302 14 37 31 3 229 -55 314 -35 53
-109 116 -161 137 -85 34 -221 50 -235 28z m141 -179 c47 -21 114 -95 114
-126 0 -33 -38 -68 -64 -58 -11 4 -82 8 -157 8 -161 0 -188 10 -169 60 43 112
168 165 276 116z"/>
<path d="M5960 3610 c-8 -5 -32 -10 -52 -10 -20 0 -40 -4 -43 -10 -3 -5 -15
-10 -26 -10 -10 0 -19 -4 -19 -10 0 -5 -6 -10 -13 -10 -7 0 -22 -8 -33 -17
-10 -10 -31 -24 -46 -32 -15 -8 -33 -27 -40 -43 -7 -15 -16 -28 -19 -28 -5 0
-41 -68 -60 -115 -28 -72 -28 -260 1 -300 4 -5 10 -21 13 -35 21 -87 142 -196
259 -231 105 -32 239 -25 330 18 173 81 258 237 245 446 -5 73 -12 100 -41
161 -48 99 -108 154 -226 204 -60 25 -204 40 -230 22z m155 -209 c45 -20 91
-69 112 -118 15 -38 18 -209 3 -218 -5 -3 -10 -14 -10 -24 0 -19 -52 -70 -91
-90 -18 -9 -54 -12 -107 -10 -70 4 -86 8 -123 34 -145 102 -130 346 26 428 42
22 140 21 190 -2z"/>
<path d="M7936 3611 c-4 -6 -23 -11 -42 -11 -19 0 -34 -4 -34 -10 0 -5 -8 -10
-17 -10 -10 0 -29 -9 -43 -20 -14 -11 -30 -20 -35 -20 -13 0 -105 -92 -105
-105 0 -6 -9 -21 -20 -35 -11 -14 -20 -33 -20 -42 0 -10 -4 -18 -10 -18 -5 0
-10 -13 -10 -29 0 -17 -4 -33 -10 -36 -6 -3 -10 -49 -10 -102 0 -193 77 -320
239 -397 63 -30 72 -31 191 -31 120 0 128 1 192 32 72 34 158 106 158 132 0 9
-25 33 -56 55 l-56 39 -51 -24 c-29 -13 -53 -27 -55 -31 -2 -5 -12 -8 -22 -8
-10 0 -20 -5 -22 -11 -2 -7 -30 -11 -70 -11 -56 0 -76 5 -120 29 -59 34 -108
94 -111 138 l-2 30 284 2 c156 1 289 4 296 7 38 14 23 184 -25 283 -48 97
-143 173 -245 195 -71 16 -162 21 -169 9z m133 -181 c83 -42 140 -146 94 -167
-27 -13 -350 0 -364 14 -9 9 -9 19 1 44 45 108 171 159 269 109z"/>
<path d="M8775 3611 c-3 -6 -19 -11 -35 -11 -16 0 -32 -4 -35 -10 -3 -5 -15
-10 -26 -10 -10 0 -19 -4 -19 -8 0 -4 -13 -16 -30 -25 -16 -10 -44 -39 -61
-64 -29 -42 -32 -53 -33 -127 0 -89 12 -122 61 -167 41 -39 78 -55 203 -89
118 -32 159 -52 162 -79 7 -79 -28 -121 -102 -121 -67 0 -156 36 -194 79 -29
32 -61 26 -106 -19 -31 -31 -40 -48 -40 -75 0 -29 6 -38 45 -65 80 -55 146
-73 275 -74 107 -1 119 1 172 27 141 69 196 216 132 346 -17 33 -40 61 -63 75
-42 27 -148 66 -179 66 -11 0 -24 5 -27 10 -3 6 -20 10 -36 10 -16 0 -35 5
-42 10 -7 6 -22 18 -34 28 -58 46 -25 120 59 129 57 7 106 -9 164 -53 24 -19
48 -34 53 -34 14 0 111 95 111 109 0 34 -126 118 -205 136 -56 14 -163 17
-170 6z"/>
<path d="M2258 3581 c-17 -16 -18 -50 -18 -419 l0 -402 105 0 105 0 0 408 0
407 -27 13 c-41 19 -144 15 -165 -7z"/>
</g>
</svg>
